<?xml version="1.0" standalone="no"?>
<!DOCTYPE svg PUBLIC "-//W3C//DTD SVG 20010904//EN"
 "http://www.w3.org/TR/2001/REC-SVG-20010904/DTD/svg10.dtd">
<svg version="1.0" xmlns="http://www.w3.org/2000/svg"
 width="1902.000000pt" height="1332.000000pt" viewBox="0 0 1902.000000 1332.000000"
 preserveAspectRatio="xMidYMid meet">
<metadata>
Created by potrace 1.10, written by Peter Selinger 2001-2011
</metadata>
<g transform="translate(0.000000,1332.000000) scale(0.100000,-0.100000)"
fill="#4f7d9a" stroke="none">
<path d="M3740 12309 c-30 -3 -74 -16 -97 -28 -33 -18 -56 -22 -105 -20 -35 2
-73 -2 -85 -9 -13 -7 -86 -14 -175 -18 -84 -3 -162 -7 -174 -9 -11 -3 -36 -20
-56 -39 -29 -28 -45 -35 -94 -41 -162 -17 -186 -23 -218 -54 -25 -25 -43 -31
-91 -36 -91 -9 -100 -12 -144 -49 -24 -20 -57 -37 -81 -41 -26 -4 -57 -21 -84
-44 -26 -22 -63 -43 -92 -50 -78 -20 -103 -32 -123 -57 -19 -24 -47 -39 -93
-48 -16 -4 -35 -20 -48 -41 -12 -19 -26 -35 -32 -35 -5 0 -33 -7 -61 -15 -39
-11 -56 -23 -69 -45 -11 -20 -28 -33 -48 -37 -21 -4 -39 -17 -53 -40 -12 -19
-43 -45 -69 -58 -25 -14 -49 -33 -52 -42 -6 -19 -84 -73 -105 -73 -6 0 -16
-11 -21 -25 -5 -14 -24 -34 -42 -43 -17 -9 -47 -33 -66 -54 -18 -20 -46 -42
-62 -48 -16 -7 -34 -25 -41 -42 -8 -19 -25 -36 -45 -44 -26 -11 -36 -23 -44
-54 -7 -27 -19 -45 -36 -52 -13 -6 -24 -15 -24 -19 0 -4 -29 -41 -64 -81 -35
-40 -66 -83 -70 -95 -4 -12 -25 -32 -46 -44 -31 -17 -41 -30 -46 -57 -5 -24
-16 -40 -39 -53 -25 -15 -34 -28 -39 -60 -5 -29 -18 -51 -50 -82 -29 -28 -45
-54 -50 -79 -4 -23 -18 -46 -37 -62 -21 -18 -35 -43 -46 -83 -11 -42 -25 -66
-50 -88 -28 -26 -35 -41 -42 -87 -8 -60 -29 -101 -60 -117 -13 -8 -21 -26 -25
-63 -13 -104 -27 -145 -57 -172 -32 -29 -34 -36 -49 -165 -8 -72 -19 -111 -45
-165 -31 -65 -34 -81 -40 -196 -3 -69 -13 -183 -22 -255 -20 -167 -19 -581 2
-743 8 -62 15 -148 15 -190 0 -111 17 -213 39 -237 26 -28 39 -75 51 -189 13
-111 23 -146 44 -146 18 0 41 -65 55 -160 9 -60 16 -79 37 -96 18 -15 31 -42
44 -94 13 -51 28 -82 49 -104 19 -20 36 -54 47 -96 12 -41 28 -74 45 -90 15
-14 35 -51 45 -83 13 -42 27 -64 56 -87 23 -19 38 -40 38 -53 0 -27 8 -38 41
-59 17 -11 34 -39 49 -78 17 -45 30 -65 52 -76 16 -8 36 -30 45 -49 9 -18 27
-39 41 -47 14 -7 33 -32 43 -55 13 -30 29 -48 53 -60 20 -9 37 -26 40 -39 4
-13 20 -31 36 -39 16 -8 39 -33 49 -54 12 -22 32 -43 49 -50 16 -7 39 -25 51
-41 12 -17 35 -37 51 -45 16 -8 37 -29 45 -45 9 -17 29 -36 45 -43 16 -6 39
-27 52 -46 14 -20 38 -38 61 -46 21 -7 60 -34 87 -59 27 -25 56 -46 64 -46 8
0 30 -18 47 -40 18 -22 40 -40 48 -40 36 0 61 -30 61 -71 0 -50 -12 -74 -60
-121 -21 -20 -43 -52 -49 -70 -6 -19 -24 -41 -40 -51 -31 -18 -35 -26 -46 -90
-4 -25 -15 -44 -35 -58 -34 -26 -47 -54 -60 -133 -8 -49 -16 -65 -45 -91 -31
-29 -35 -38 -35 -81 0 -67 -14 -109 -49 -149 -32 -37 -33 -41 -52 -255 -12
-143 -3 -261 23 -287 11 -10 122 -13 543 -15 292 -1 540 2 553 6 12 4 30 22
38 39 9 17 27 39 40 50 27 21 31 42 39 203 8 153 16 189 53 228 24 25 31 43
37 96 7 56 12 69 40 95 19 17 43 55 55 88 24 63 55 106 93 126 14 7 30 25 36
38 11 23 16 25 55 21 25 -3 52 -14 64 -26 24 -24 50 -27 318 -41 105 -6 203
-15 218 -21 19 -7 633 -11 1899 -12 1030 0 1899 0 1933 1 58 1 63 -1 125 -47
83 -64 87 -69 100 -138 8 -46 19 -68 49 -100 35 -39 38 -45 45 -128 6 -72 13
-98 43 -154 34 -64 36 -73 40 -184 3 -82 9 -121 18 -129 21 -17 1183 -14 1201
3 9 9 14 47 15 118 2 91 0 110 -19 145 -45 84 -52 103 -67 209 -9 60 -23 121
-31 135 -40 72 -54 112 -60 175 -7 61 -12 73 -40 100 -58 56 -73 149 -30 191
13 14 31 25 38 25 8 0 26 15 40 33 17 23 44 41 85 55 34 13 70 35 86 53 15 17
40 35 56 41 16 5 41 25 55 44 14 19 32 34 40 34 8 0 52 36 98 81 47 44 107 92
133 105 27 14 63 40 79 59 17 18 48 38 70 45 22 7 54 26 72 43 38 35 85 46
218 46 91 1 99 4 167 53 13 10 22 6 52 -20 36 -32 38 -32 141 -32 130 0 194
-13 241 -51 20 -16 55 -34 78 -39 65 -17 92 -30 116 -55 14 -15 47 -29 98 -41
49 -11 86 -26 103 -41 15 -13 55 -33 91 -44 46 -13 74 -29 95 -52 26 -29 41
-35 104 -46 69 -11 139 -42 139 -61 0 -10 49 -26 107 -35 33 -5 50 -15 72 -42
24 -29 40 -37 95 -49 65 -13 116 -38 116 -55 0 -4 41 -20 90 -35 50 -15 102
-38 115 -50 14 -13 51 -31 82 -40 36 -11 68 -28 84 -46 23 -26 34 -29 125 -38
55 -5 116 -16 136 -25 48 -19 169 -20 268 0 41 8 106 19 145 24 56 8 73 15 88
35 10 14 34 30 55 36 39 13 52 24 203 176 33 33 48 83 49 167 0 47 -1 48 -44
67 -72 32 -71 29 -71 258 0 190 -1 206 -19 216 -10 6 -34 26 -52 44 -33 32
-35 32 -64 17 -16 -9 -30 -20 -30 -25 0 -5 -13 -16 -28 -24 -16 -8 -71 -58
-123 -110 l-95 -96 -76 0 c-88 0 -118 9 -163 49 -22 19 -50 31 -81 36 -62 9
-80 19 -98 54 -13 24 -25 30 -96 44 -54 11 -95 26 -124 46 -23 16 -55 33 -69
37 -15 3 -39 20 -53 37 -25 30 -25 30 -18 161 4 72 11 141 15 153 21 57 -19
137 -86 173 l-46 25 -20 -27 c-11 -15 -34 -31 -52 -37 -18 -6 -43 -27 -55 -45
-13 -19 -34 -42 -47 -50 -12 -8 -32 -30 -44 -49 -17 -28 -32 -38 -80 -51 -82
-23 -188 -6 -238 37 -21 18 -61 37 -101 49 -37 10 -90 34 -118 53 -44 31 -122
55 -177 55 -4 0 -25 18 -47 40 -22 22 -49 40 -60 40 -42 0 -52 53 -48 259 3
184 2 186 -22 223 -32 47 -67 62 -125 53 -35 -5 -48 -12 -54 -29 -11 -27 -27
-41 -65 -53 -20 -6 -32 -19 -41 -47 -18 -52 -90 -124 -137 -137 -26 -7 -58 -6
-104 2 -57 10 -72 17 -112 55 -25 24 -49 44 -53 44 -5 0 -14 18 -21 41 -7 24
-21 45 -33 51 -45 20 -55 56 -55 197 0 142 11 190 49 211 12 6 29 28 39 48 10
23 29 42 49 51 22 10 36 25 44 48 7 23 22 39 45 51 25 11 37 25 44 51 7 25 40
67 110 139 56 56 108 102 116 102 7 0 24 15 36 34 58 88 173 126 222 73 15
-16 42 -29 79 -37 35 -7 65 -20 81 -37 29 -29 70 -40 128 -35 36 4 42 9 59 46
35 78 15 225 -40 295 -17 22 -38 57 -45 80 -28 79 -20 91 253 361 136 135 256
251 265 259 10 7 38 16 62 19 38 4 48 1 68 -21 13 -15 37 -29 53 -33 82 -18
104 -27 138 -54 30 -24 48 -30 85 -30 53 0 60 6 85 72 17 45 17 52 0 138 -15
76 -22 93 -45 110 -43 30 -67 150 -40 201 9 17 103 118 172 187 312 309 380
372 413 378 53 10 95 -2 144 -41 54 -43 95 -55 189 -55 67 0 76 2 95 26 12 14
32 37 45 51 12 14 22 28 22 31 0 2 -13 19 -29 38 -19 22 -33 52 -41 91 -17 88
-19 92 -49 108 -41 21 -45 52 -16 105 14 25 39 73 56 108 17 34 41 67 53 74
29 15 33 23 41 87 8 66 18 89 51 117 33 27 41 86 34 256 l-5 138 -32 29 c-30
27 -43 60 -58 144 -3 21 -12 40 -20 43 -18 7 -52 65 -63 107 -6 23 -18 37 -45
50 -21 9 -43 28 -49 42 -6 13 -28 35 -48 49 -24 16 -39 35 -43 54 -5 22 -15
33 -44 45 -22 9 -44 26 -50 40 -7 14 -25 33 -41 43 -16 9 -37 32 -46 51 -10
22 -29 39 -52 49 -19 8 -47 28 -62 44 -18 20 -44 33 -77 41 -27 6 -66 15 -85
21 -63 17 -209 13 -297 -8 -70 -16 -87 -24 -116 -56 -19 -21 -44 -38 -56 -38
-13 0 -30 -14 -47 -40 -14 -22 -34 -42 -44 -45 -10 -3 -25 -26 -34 -51 -8 -25
-29 -61 -45 -79 -37 -43 -44 -87 -40 -248 l4 -124 37 -41 c23 -26 39 -55 43
-79 8 -53 17 -66 53 -82 19 -9 35 -26 42 -45 7 -17 19 -48 28 -69 18 -43 8
-71 -41 -116 -35 -31 -132 -128 -168 -168 -14 -15 -55 -54 -90 -87 -35 -32
-71 -73 -79 -90 -10 -20 -27 -35 -48 -42 -19 -6 -41 -24 -52 -41 -10 -17 -32
-40 -49 -52 -17 -12 -31 -28 -31 -34 0 -13 -109 -114 -148 -138 -13 -8 -32
-31 -43 -51 -10 -21 -29 -43 -41 -49 -26 -14 -128 -117 -128 -129 0 -5 -17
-22 -37 -37 -58 -43 -146 -134 -163 -167 -8 -17 -26 -36 -39 -43 -14 -6 -39
-28 -57 -47 -18 -20 -38 -36 -44 -36 -6 0 -16 -11 -22 -25 -6 -14 -32 -41 -57
-59 -31 -22 -57 -53 -79 -93 -33 -63 -51 -76 -127 -93 -50 -11 -140 13 -185
49 -64 51 -94 56 -345 55 -126 0 -247 -4 -268 -8 -24 -4 -51 -21 -76 -46 -22
-22 -49 -40 -61 -40 -13 0 -28 -12 -41 -34 -11 -19 -32 -39 -48 -45 -15 -7
-35 -27 -44 -46 -9 -19 -30 -41 -46 -49 -30 -16 -35 -31 -57 -161 -3 -22 -20
-60 -36 -85 -29 -44 -29 -48 -26 -155 3 -101 5 -113 32 -154 19 -29 32 -67 38
-110 17 -120 21 -132 53 -149 38 -21 42 -27 59 -83 12 -38 12 -57 0 -124 -13
-74 -16 -81 -61 -121 -27 -24 -64 -48 -83 -53 -20 -6 -181 -11 -372 -11 -321
-1 -338 0 -377 19 -22 12 -45 30 -51 41 -6 11 -10 57 -9 103 1 69 -9 146 -36
274 -3 12 -17 29 -31 36 -14 7 -31 24 -37 38 -7 13 -28 32 -47 41 -19 10 -47
32 -62 50 l-27 33 -181 -1 -182 -1 -32 -36 c-17 -19 -48 -41 -70 -49 -54 -18
-80 -49 -99 -116 -9 -32 -28 -71 -43 -87 -35 -38 -43 -77 -44 -202 0 -108 -7
-127 -53 -138 -12 -3 -237 -4 -499 -3 l-477 3 -23 23 c-21 21 -23 33 -28 173
l-5 150 -33 27 c-23 19 -38 45 -51 86 -17 56 -21 60 -83 95 -36 20 -77 44 -91
54 -59 43 -373 30 -400 -16 -7 -10 -31 -27 -54 -38 -26 -11 -48 -29 -58 -49
-9 -17 -29 -43 -45 -58 -25 -23 -32 -41 -45 -116 -8 -49 -15 -107 -15 -130 0
-23 -9 -70 -21 -104 -16 -48 -28 -66 -54 -82 -33 -21 -43 -21 -507 -18 -424 3
-476 5 -504 20 -17 10 -35 25 -38 34 -11 29 5 107 31 153 l26 44 -31 61 c-17
34 -36 93 -42 134 -11 70 -14 74 -53 99 -23 14 -50 36 -59 49 -11 13 -38 27
-70 34 -29 6 -71 18 -93 27 -53 20 -189 20 -235 0 -19 -8 -61 -20 -93 -27 -48
-10 -60 -16 -73 -41 -8 -17 -29 -38 -46 -49 -27 -16 -34 -30 -52 -104 -12 -46
-30 -94 -40 -105 -46 -51 -149 -68 -186 -31 -11 11 -20 24 -20 30 0 5 -21 20
-48 34 -50 25 -152 125 -152 149 0 7 -11 20 -24 27 -14 7 -32 30 -40 50 -9 23
-28 45 -50 58 -24 14 -38 32 -45 58 -6 20 -23 53 -39 73 -37 46 -52 75 -52 99
0 11 -18 43 -40 71 -52 65 -68 134 -41 171 21 29 43 37 123 45 40 5 70 15 100
36 24 16 66 36 93 44 73 23 88 33 139 100 87 113 81 90 81 285 -1 191 -6 226
-33 234 -10 3 -37 35 -60 71 -39 58 -48 66 -95 80 -29 9 -86 20 -127 24 -131
14 -156 40 -147 160 6 88 16 115 58 149 16 13 33 40 39 63 7 23 21 46 37 56
14 9 38 44 54 77 16 33 40 67 56 77 27 17 55 41 168 144 30 28 66 50 91 56 32
8 44 18 55 42 10 23 25 36 53 45 22 7 56 28 76 46 26 23 52 36 81 40 77 12
133 28 154 46 85 74 139 40 150 -96 14 -169 15 -172 51 -215 19 -22 34 -47 34
-55 0 -27 94 -116 147 -140 30 -13 54 -32 58 -43 8 -25 54 -36 150 -35 77 0
145 18 145 38 0 13 23 26 105 57 38 14 61 32 95 75 82 104 80 96 80 250 1 76
3 154 6 171 7 36 54 89 94 105 14 6 89 9 170 7 80 -1 168 -1 195 1 64 4 584 4
821 0 99 -2 187 0 194 5 7 4 63 14 124 21 104 12 113 15 136 42 14 17 42 37
62 45 20 8 59 33 87 56 28 22 60 42 70 46 10 3 31 24 45 46 15 22 44 57 65 78
21 21 44 56 51 77 7 22 25 51 40 65 20 18 31 43 40 85 19 100 31 136 51 164
23 31 48 127 49 187 0 46 -33 133 -51 133 -7 0 -36 23 -65 50 -29 28 -59 50
-66 50 -119 5 -2949 3 -2988 -1z m5972 -3118 c24 -11 70 -28 103 -38 55 -16
62 -22 82 -63 11 -25 24 -61 27 -80 3 -20 17 -51 31 -70 37 -51 36 -126 -4
-164 -17 -16 -32 -44 -36 -64 -9 -49 -31 -82 -55 -82 -10 0 -28 -13 -39 -29
-32 -44 -66 -53 -191 -49 l-112 3 -32 36 c-17 21 -41 40 -53 43 -12 4 -30 26
-43 53 -12 26 -35 59 -51 74 -26 24 -29 33 -29 91 1 85 13 135 43 167 14 14
34 45 46 68 25 50 36 57 129 78 39 9 76 23 83 31 16 19 50 18 101 -5z"/>
</g>
</svg>
